<svg xmlns="http://www.w3.org/2000/svg" xmlns:xlink="http://www.w3.org/1999/xlink" viewBox="0 0 1809 180"><defs><style>.\31 ae4a37b-f313-407e-b542-0e21feab184d{fill:#fff;}.\33 64afebf-cf33-4f80-9253-ababc63456c3,.\38 028f3c8-d6fb-4485-ac88-4d275a33153f,.c5d0ac6a-9fd5-4e7e-b30d-3444ee6c497e{stroke:#000;stroke-miterlimit:10;stroke-width:4px;}.\33 64afebf-cf33-4f80-9253-ababc63456c3{fill:url(#f28643cd-b806-4544-9161-d66f3b693254);}.\31 2c3c888-6184-4c85-a0a2-a9881e81e107{fill:url(#4f0e8301-33ce-402d-89b8-a8b63427924b);}.c5d0ac6a-9fd5-4e7e-b30d-3444ee6c497e{fill:url(#bd2d1508-1e67-496c-bf8e-0afe04e40ca2);}.a43767ed-899b-4e8c-85b4-0f015c6c0278{fill:url(#0e2083fb-fafa-4c89-aa92-be3ad1b4fc43);}.\38 028f3c8-d6fb-4485-ac88-4d275a33153f{fill:url(#e347133b-b33c-4646-a287-59bfc12c0fe5);}.\37 29b7814-65fb-4230-b595-befcd5b3b44c{fill:url(#954a16cb-cc0f-4289-8e39-af6f17912773);}</style><radialGradient id="f28643cd-b806-4544-9161-d66f3b693254" cx="1663.06391" cy="56.76556" r="38.05872" gradientUnits="userSpaceOnUse"><stop offset="0" stop-color="#ffd6a9"/><stop offset="0.05493" stop-color="#facb9f"/><stop offset="0.51786" stop-color="#d0734f"/><stop offset="0.84326" stop-color="#b53b1c"/><stop offset="1" stop-color="#ab2609"/></radialGradient><radialGradient id="4f0e8301-33ce-402d-89b8-a8b63427924b" cx="1663.05758" cy="56.70167" r="25.21133" gradientUnits="userSpaceOnUse"><stop offset="0" stop-color="#fffef8"/><stop offset="0.19766" stop-color="#fffbf2"/><stop offset="0.47405" stop-color="#fff1df"/><stop offset="0.79541" stop-color="#ffe2c2"/><stop offset="1" stop-color="#ffd6ab"/></radialGradient><radialGradient id="bd2d1508-1e67-496c-bf8e-0afe04e40ca2" cx="1625.36335" cy="122.31352" r="38.05872" gradientUnits="userSpaceOnUse"><stop offset="0" stop-color="#fcf9a2"/><stop offset="0.12269" stop-color="#f8f299"/><stop offset="0.32051" stop-color="#eddd82"/><stop offset="0.56875" stop-color="#dcbc5b"/><stop offset="0.85504" stop-color="#c48f26"/><stop offset="1" stop-color="#b77608"/></radialGradient><radialGradient id="0e2083fb-fafa-4c89-aa92-be3ad1b4fc43" cx="1625.35702" cy="122.24963" r="25.21133" gradientUnits="userSpaceOnUse"><stop offset="0" stop-color="#fffffc"/><stop offset="0.15616" stop-color="#fefdf5"/><stop offset="0.38526" stop-color="#fbf9e1"/><stop offset="0.65927" stop-color="#f5f1c1"/><stop offset="0.96574" stop-color="#eee794"/><stop offset="1" stop-color="#ede68f"/></radialGradient><radialGradient id="e347133b-b33c-4646-a287-59bfc12c0fe5" cx="1700.76447" cy="122.31352" r="38.05872" gradientUnits="userSpaceOnUse"><stop offset="0" stop-color="#9aedff"/><stop offset="0.13409" stop-color="#94e8fc"/><stop offset="0.30433" stop-color="#85daf4"/><stop offset="0.49415" stop-color="#6bc2e6"/><stop offset="0.69808" stop-color="#47a1d3"/><stop offset="0.91117" stop-color="#1877ba"/><stop offset="1" stop-color="#0364af"/></radialGradient><radialGradient id="954a16cb-cc0f-4289-8e39-af6f17912773" cx="1700.75814" cy="122.24963" r="25.21133" gradientUnits="userSpaceOnUse"><stop offset="0" stop-color="#fcfeff"/><stop offset="0.16784" stop-color="#f5fdff"/><stop offset="0.41411" stop-color="#e1f9ff"/><stop offset="0.70713" stop-color="#c1f4ff"/><stop offset="1" stop-color="#9aedff"/></radialGradient></defs><title>banner-sm</title><g id="80e5f930-1efe-4f01-be8d-3cdbad2dcaf1" data-name="banner-sm"><g id="fff866c9-a149-42ab-94c4-0a59caf2e1f8" data-name="border"><rect class="1ae4a37b-f313-407e-b542-0e21feab184d" x="3" y="3" width="1803" height="174" rx="37" ry="37"/><path d="M1769,6a34.0386,34.0386,0,0,1,34,34V140a34.0386,34.0386,0,0,1-34,34H40A34.0386,34.0386,0,0,1,6,140V40A34.0386,34.0386,0,0,1,40,6H1769m0-6H40A40.1176,40.1176,0,0,0,0,40V140a40.1176,40.1176,0,0,0,40,40H1769a40.1176,40.1176,0,0,0,40-40V40a40.1176,40.1176,0,0,0-40-40Z"/></g><g id="b4cddd38-2eae-41b5-b94d-24ce6736b324" data-name="red"><polygon class="364afebf-cf33-4f80-9253-ababc63456c3" points="1627.828 36.422 1627.828 77.109 1663.064 97.452 1698.299 77.109 1698.299 36.422 1663.064 16.079 1627.828 36.422"/><polygon class="12c3c888-6184-4c85-a0a2-a9881e81e107" points="1639.716 43.226 1639.716 70.178 1663.058 83.654 1686.399 70.178 1686.399 43.226 1663.058 29.75 1639.716 43.226"/></g><g id="c34834f0-c030-4af3-b4a8-d9fa2713fee9" data-name="yellow"><polygon class="c5d0ac6a-9fd5-4e7e-b30d-3444ee6c497e" points="1590.128 101.97 1590.128 142.657 1625.363 163 1660.599 142.657 1660.599 101.97 1625.363 81.627 1590.128 101.97"/><polygon class="a43767ed-899b-4e8c-85b4-0f015c6c0278" points="1602.016 108.774 1602.016 135.726 1625.357 149.202 1648.698 135.726 1648.698 108.774 1625.357 95.298 1602.016 108.774"/></g><g id="d164c58a-68cf-4557-a1c7-20b179601298" data-name="blue"><polygon class="8028f3c8-d6fb-4485-ac88-4d275a33153f" points="1665.529 101.97 1665.529 142.657 1700.764 163 1736 142.657 1736 101.97 1700.764 81.627 1665.529 101.97"/><polygon class="729b7814-65fb-4230-b595-befcd5b3b44c" points="1677.417 108.774 1677.417 135.726 1700.758 149.202 1724.099 135.726 1724.099 108.774 1700.758 95.298 1677.417 108.774"/></g><g id="c422a780-e47d-4313-9799-87857227037b" data-name="text"><path d="M121.98047,125.42969a64.73944,64.73944,0,0,1-13.292,1.09375c-33.32715,0-41.63379-22.32227-41.63379-32.38867,0-17.94531,14.75684-40.81348,49.25684-47.707l1.46582,9.19141C95.39648,58.46387,76.92578,73.45508,76.92578,92.27539c0,13.34961,9.38184,25.93164,32.74023,25.93164a46.27029,46.27029,0,0,0,11.33691-1.53125Z"/><path d="M148.06934,96.32422c0,3.501.293,27.02637.48926,28.44922h-9.1875c.293-2.18945.19531-31.73242.19531-33.70215v-7.5498c0-2.8457-.19531-22.10352-.48828-23.85352a143.86153,143.86153,0,0,1,19.35059.76563c11.72852,1.53125,18.56934,6.89355,18.56934,14.99023,0,7.66016-5.27734,14.22461-12.60742,19.03906,2.248,3.39258,17.9834,22.65039,20.52441,25.38672l-6.74414,6.67383c-.97754-1.3125-21.11035-28.88672-23.749-32.82617,4.39844-2.5166,13.292-7.5498,13.292-16.85059,0-4.377-3.03027-9.958-19.64453-10.06738Z"/><path d="M231.91895,125.75781c-2.93164,0-29.71094-.98437-31.46973-.98437.293-4.92383.293-24.83887.293-27.02734V85.38086c0-1.53125-.19531-23.96289-.293-25.71289,2.15039,0,25.3125-1.42285,29.71094-1.751l.39063,7.87793c-3.81152,0-19.83984.4375-21.30566.4375V88.99219c1.66113,0,12.999-.4375,18.374-.98437l.293,7.9873c-2.93164,0-16.71191-.32812-18.667-.32812v22.10254c2.15039,0,14.07324.21875,22.38086-.32812Z"/><path d="M241.78711,121.92773c4.69141-9.30078,30.10156-61.93164,32.05664-65.543h.19531c7.52539,13.24023,28.63574,55.14844,34.40137,64.88672l-7.916,5.36133c-1.56348-3.501-10.751-21.88379-11.62988-23.52539l-30.19922,1.31348c-1.17285,2.9541-8.01465,19.14844-9.38281,22.32129Zm44.07715-25.49414c-.97656-2.08008-11.23926-23.08789-12.11816-24.62012-1.27051,2.18848-10.94629,24.18164-11.72852,25.71387Z"/><path d="M328.27539,124.77344c.48926-2.4082.58691-29.54395.58691-44.31641V67.43652c-10.06641,0-22.67383.4375-23.94434.876V59.44922c2.541.76563,23.55273,1.09375,24.53027,1.09375h7.81836c1.66211,0,21.0127-.32812,23.84766-1.09375V68.3125c-.19629-.43848-16.61523-.876-23.749-.876V81.87988c0,18.92969.87891,41.03223,1.07422,42.89355Z"/><path d="M405.6748,125.75781c-2.93164,0-29.71094-.98437-31.46973-.98437.293-4.92383.293-24.83887.293-27.02734V85.38086c0-1.53125-.19531-23.96289-.293-25.71289,2.15039,0,25.3125-1.42285,29.71094-1.751l.39063,7.87793c-3.81152,0-19.83984.4375-21.30566.4375V88.99219c1.66113,0,12.999-.4375,18.374-.98437l.293,7.9873c-2.93164,0-16.71191-.32812-18.667-.32812v22.10254c2.15039,0,14.07324.21875,22.38086-.32812Z"/><path d="M427.0752,83.84961c0-1.96973-.09766-21.55664-.48828-24.18164,5.082,0,14.1709-.10937,21.8916.54688,29.02734,2.5166,31.56836,17.94531,31.56836,24.40039,0,29.7627-30.19922,40.5957-53.55762,40.5957.39063-4.26758.58594-27.35547.58594-29.87207Zm8.40527,33.26367c23.84668-1.75,35.57422-16.74121,35.57422-30.30957,0-14.334-13.19336-20.24316-35.57422-19.80469Z"/><path d="M517.37109,121.92773c4.69141-9.30078,30.10156-61.93164,32.05664-65.543h.19531c7.52539,13.24023,28.63574,55.14844,34.40137,64.88672l-7.916,5.36133c-1.56348-3.501-10.751-21.88379-11.62988-23.52539L534.2793,104.4209c-1.17285,2.9541-8.01465,19.14844-9.38281,22.32129Zm44.07715-25.49414c-.97656-2.08008-11.23926-23.08789-12.11816-24.62012-1.27051,2.18848-10.94629,24.18164-11.72852,25.71387Z"/><path d="M603.85938,124.77344c.48926-2.4082.58691-29.54395.58691-44.31641V67.43652c-10.06641,0-22.67383.4375-23.94434.876V59.44922c2.541.76563,23.55273,1.09375,24.53027,1.09375h7.81836c1.66211,0,21.0127-.32812,23.84766-1.09375V68.3125c-.19629-.43848-16.61523-.876-23.749-.876V81.87988c0,18.92969.87891,41.03223,1.07422,42.89355Z"/><path d="M688.87891,96.32422c0,3.501.293,27.02637.48828,28.44922h-9.18652c.293-2.18945.19531-31.73242.19531-33.70215v-7.5498c0-2.8457-.19531-22.10352-.48828-23.85352a143.86153,143.86153,0,0,1,19.35059.76563c11.72852,1.53125,18.56934,6.89355,18.56934,14.99023,0,7.66016-5.27734,14.22461-12.60742,19.03906,2.248,3.39258,17.9834,22.65039,20.52441,25.38672l-6.74414,6.67383c-.97754-1.3125-21.11035-28.88672-23.749-32.82617,4.39844-2.5166,13.292-7.5498,13.292-16.85059,0-4.377-3.03027-9.958-19.64453-10.06738Z"/><path d="M733.14844,95.55762c0-20.68066,13.585-37.42187,35.08594-37.42187,17.20117,0,29.80859,11.708,29.80859,31.73145,0,14.55371-9.18652,36.4375-34.793,36.4375C743.80176,126.30469,733.14844,111.9707,733.14844,95.55762Zm55.80566-5.25293c0-16.63086-10.35937-24.94727-21.99023-24.94727-15.53906,0-24.82422,12.91211-24.82422,28.77734,0,13.89648,8.30762,24.94824,21.89258,24.94824C777.42188,119.083,788.9541,108.6875,788.9541,90.30469Z"/><path d="M815.92383,125.75781c.19531-2.73535.48828-18.49219.48828-29.10547V86.80371c0-8.09668-.48828-25.93262-.48828-28.12109h9.38184c-.09766,1.53223-.48828,19.14941-.48828,27.24609v9.957c0,7.22168.293,28.01172.48828,29.87207Zm40.85254-.10937c-1.0752-1.3125-27.46289-30.52832-31.27441-35.124,1.46582-1.53223,26.876-28.12109,28.92871-30.52832l5.17969,7.1123c-3.51855,3.06348-19.15527,17.835-23.94434,22.75879,2.73633,3.61133,23.65137,24.83887,27.16895,28.33984Z"/><path d="M891.66113,124.77344c.48926-2.4082.58691-29.54395.58691-44.31641V67.43652c-10.06641,0-22.67383.4375-23.94434.876V59.44922c2.541.76563,23.55273,1.09375,24.53027,1.09375h7.81836c1.66211,0,21.0127-.32812,23.84766-1.09375V68.3125c-.19629-.43848-16.61523-.876-23.749-.876V81.87988c0,18.92969.87891,41.03223,1.07422,42.89355Z"/><path d="M921.85645,121.92773c4.69141-9.30078,30.10156-61.93164,32.05664-65.543h.19531c7.52539,13.24023,28.63574,55.14844,34.40137,64.88672l-7.916,5.36133c-1.56348-3.501-10.751-21.88379-11.62988-23.52539l-30.19922,1.31348c-1.17285,2.9541-8.01465,19.14844-9.38281,22.32129Zm44.07715-25.49414c-.97656-2.08008-11.23926-23.08789-12.11816-24.62012-1.27051,2.18848-10.94629,24.18164-11.72852,25.71387Z"/><path d="M1013.03613,59.668c-.3916,2.07813-.78223,20.35156-.78223,32.06055v25.71289c2.15039,0,12.70508,0,22.18555-.4375v8.75391c-2.834,0-29.22266-.98437-31.46973-.98437.78125-4.92383.78125-24.83887.78125-27.02734V85.38086c0-1.53125-.19531-23.96289-.39062-25.71289Z"/><path d="M1083.98535,125.75781c-2.93164,0-29.71094-.98437-31.46973-.98437.293-4.92383.293-24.83887.293-27.02734V85.38086c0-1.53125-.19531-23.96289-.293-25.71289,2.15039,0,25.3125-1.42285,29.71094-1.751l.39063,7.87793c-3.81152,0-19.83984.4375-21.30566.4375V88.99219c1.66113,0,12.999-.4375,18.374-.98437l.293,7.9873c-2.93164,0-16.71191-.32812-18.667-.32812v22.10254c2.15039,0,14.07324.21875,22.38086-.32812Z"/><path d="M1102.35547,124.77344c.48828-7.00391,2.93164-59.19727,3.32324-68.82617h.48828c2.541,3.06445,43.2959,49.02051,46.03223,51.97461,0-2.626.19531-45.62891.293-48.69141l8.69824.4375c-.39062,5.58008-2.05274,43.6582-2.44336,67.07422h-.39062c-2.541-2.51562-45.34863-50.333-46.61914-51.64648.19629,1.751-.48828,47.26953-.39062,50.334Z"/><path d="M1194.80469,124.77344c.48926-2.4082.58691-29.54395.58691-44.31641V67.43652c-10.06641,0-22.67383.4375-23.94434.876V59.44922c2.541.76563,23.55273,1.09375,24.53027,1.09375h7.81836c1.66211,0,21.0127-.32812,23.84766-1.09375V68.3125c-.19629-.43848-16.61524-.876-23.749-.876V81.87988c0,18.92969.87891,41.03223,1.07422,42.89355Z"/><path d="M1238.38867,118.86426c8.99121-1.96973,20.42676-6.01855,20.42676-13.459,0-4.81445-3.03027-7.1123-9.48047-10.61426-7.623-4.15723-13.19434-8.09668-13.19434-14.88086,0-10.39453,13.585-19.47656,26.19238-21.99316l1.85742,7.65918c-5.7666.98438-19.05762,4.70508-19.05762,12.80273,0,5.0332,6.35254,7.5498,10.16406,9.957,6.74316,4.1582,12.60742,7.1123,12.60742,14.88086,0,9.62891-9.87109,19.36719-27.26758,23.30664Z"/><path d="M1283.7334,112.627h10.94629v12.14648H1283.7334Z"/><path d="M1357.71387,125.53906a67.17637,67.17637,0,0,1-11.14062.76563c-30.29785,0-37.72559-18.60156-37.72559-27.57422,0-15.75586,13.292-34.68555,43.68652-40.7041l1.36816,8.31543c-19.35059,2.627-35.96484,14.66309-35.96484,30.85742,0,10.94141,8.30664,21.22754,29.51465,21.22754a40.62845,40.62845,0,0,0,9.38281-1.09473Z"/><path d="M1365.333,95.55762c0-20.68066,13.585-37.42187,35.08594-37.42187,17.20117,0,29.80859,11.708,29.80859,31.73145,0,14.55371-9.18652,36.4375-34.793,36.4375C1375.98633,126.30469,1365.333,111.9707,1365.333,95.55762Zm55.80566-5.25293c0-16.63086-10.35937-24.94727-21.99023-24.94727-15.53906,0-24.82422,12.91211-24.82422,28.77734,0,13.89648,8.30762,24.94824,21.89258,24.94824C1409.60645,119.083,1421.13867,108.6875,1421.13867,90.30469Z"/><path d="M1436.86816,124.33594c1.4668-3.93945,19.54688-63.90234,20.03516-66.2002h.3916c2.63867,5.90918,18.667,39.8291,21.30566,45.19043,2.834-5.252,21.11035-40.48535,22.67383-43.33008h.293c2.63867,7.5498,17.98242,53.94434,21.59863,63.792l-8.11133,3.3916c-2.05273-7.002-14.1709-46.06543-15.34375-49.67676-2.835,5.14355-18.27637,34.57715-22.08789,41.36133h-.19531c-4.98437-10.39551-15.34375-32.16992-19.25391-40.59473-1.56348,5.79883-12.41211,45.2998-13.291,48.91016Z"/></g></g></svg>