<svg xmlns="http://www.w3.org/2000/svg" xmlns:xlink="http://www.w3.org/1999/xlink" viewBox="0 0 1809 358"><defs><style>.d6a48a3d-503f-4369-9823-1c57e7d4cd70{fill:#fff;}.\32 a53ef28-bf34-464c-85ff-6657f1ed7742,.\34 bb4016c-79bb-41fd-bfc1-550597e1c608,.\36 829a67e-646f-41f8-b223-e865eec52e87{stroke:#000;stroke-miterlimit:10;stroke-width:6px;}.\36 829a67e-646f-41f8-b223-e865eec52e87{fill:url(#841d1f0e-da6c-425c-be49-bccb9a676f6f);}.f08dd4e6-6357-40cb-b19f-9255fae69a56{fill:url(#d80524a8-a58f-4e5b-8b20-e6e23f4aa065);}.\32 a53ef28-bf34-464c-85ff-6657f1ed7742{fill:url(#0ea7803d-1af7-4137-b101-86a6fdea9f8c);}.eeae463b-ae8f-4e92-b1bf-a5316d81aac8{fill:url(#af352187-cf09-42c7-af99-9be934634a92);}.\34 bb4016c-79bb-41fd-bfc1-550597e1c608{fill:url(#29e721cb-d97c-41a5-9c22-b52e88373554);}.d2f5a0c9-319a-4ed4-9f64-570ff386f138{fill:url(#4b390da7-061a-4d87-b0e2-2019765d5342);}</style><radialGradient id="841d1f0e-da6c-425c-be49-bccb9a676f6f" cx="162.37814" cy="121.51173" r="66.59425" gradientUnits="userSpaceOnUse"><stop offset="0" stop-color="#ffd6a9"/><stop offset="0.05493" stop-color="#facb9f"/><stop offset="0.51786" stop-color="#d0734f"/><stop offset="0.84326" stop-color="#b53b1c"/><stop offset="1" stop-color="#ab2609"/></radialGradient><radialGradient id="d80524a8-a58f-4e5b-8b20-e6e23f4aa065" cx="162.36706" cy="121.39994" r="44.11419" gradientUnits="userSpaceOnUse"><stop offset="0" stop-color="#fffef8"/><stop offset="0.19766" stop-color="#fffbf2"/><stop offset="0.47405" stop-color="#fff1df"/><stop offset="0.79541" stop-color="#ffe2c2"/><stop offset="1" stop-color="#ffd6ab"/></radialGradient><radialGradient id="0ea7803d-1af7-4137-b101-86a6fdea9f8c" cx="96.41057" cy="236.20601" r="66.59425" gradientUnits="userSpaceOnUse"><stop offset="0" stop-color="#fcf9a2"/><stop offset="0.12269" stop-color="#f8f299"/><stop offset="0.32051" stop-color="#eddd82"/><stop offset="0.56875" stop-color="#dcbc5b"/><stop offset="0.85504" stop-color="#c48f26"/><stop offset="1" stop-color="#b77608"/></radialGradient><radialGradient id="af352187-cf09-42c7-af99-9be934634a92" cx="96.3995" cy="236.09421" r="44.11419" gradientUnits="userSpaceOnUse"><stop offset="0" stop-color="#fffffc"/><stop offset="0.15616" stop-color="#fefdf5"/><stop offset="0.38526" stop-color="#fbf9e1"/><stop offset="0.65927" stop-color="#f5f1c1"/><stop offset="0.96574" stop-color="#eee794"/><stop offset="1" stop-color="#ede68f"/></radialGradient><radialGradient id="29e721cb-d97c-41a5-9c22-b52e88373554" cx="228.3457" cy="236.20601" r="66.59425" gradientUnits="userSpaceOnUse"><stop offset="0" stop-color="#9aedff"/><stop offset="0.13409" stop-color="#94e8fc"/><stop offset="0.30433" stop-color="#85daf4"/><stop offset="0.49415" stop-color="#6bc2e6"/><stop offset="0.69808" stop-color="#47a1d3"/><stop offset="0.91117" stop-color="#1877ba"/><stop offset="1" stop-color="#0364af"/></radialGradient><radialGradient id="4b390da7-061a-4d87-b0e2-2019765d5342" cx="228.33462" cy="236.09421" r="44.11419" gradientUnits="userSpaceOnUse"><stop offset="0" stop-color="#fcfeff"/><stop offset="0.16784" stop-color="#f5fdff"/><stop offset="0.41411" stop-color="#e1f9ff"/><stop offset="0.70713" stop-color="#c1f4ff"/><stop offset="1" stop-color="#9aedff"/></radialGradient></defs><title>banner-lg</title><g id="630ce0c8-d541-4771-b754-a8cb448ab20c" data-name="banner-lg"><g id="b48a7dd5-a92e-4b3c-ad99-fabb8c7875b5" data-name="border"><rect class="d6a48a3d-503f-4369-9823-1c57e7d4cd70" x="4" y="4" width="1801" height="350" rx="36" ry="36"/><path d="M1769,8a32.03636,32.03636,0,0,1,32,32V318a32.03636,32.03636,0,0,1-32,32H40A32.03636,32.03636,0,0,1,8,318V40A32.03636,32.03636,0,0,1,40,8H1769m0-8H40A40.1176,40.1176,0,0,0,0,40V318a40.1176,40.1176,0,0,0,40,40H1769a40.1176,40.1176,0,0,0,40-40V40a40.1176,40.1176,0,0,0-40-40Z"/></g><g id="fb249804-65c2-467e-9e63-22d6b0b12260" data-name="red"><polygon class="6829a67e-646f-41f8-b223-e865eec52e87" points="100.724 85.916 100.724 157.108 162.378 192.704 224.032 157.108 224.032 85.916 162.378 50.319 100.724 85.916"/><polygon class="f08dd4e6-6357-40cb-b19f-9255fae69a56" points="121.525 97.82 121.525 144.98 162.367 168.56 203.209 144.98 203.209 97.82 162.367 74.24 121.525 97.82"/></g><g id="16b6976d-3be5-4e97-a057-9265b3c818e8" data-name="yellow"><polygon class="2a53ef28-bf34-464c-85ff-6657f1ed7742" points="34.756 200.61 34.756 271.802 96.411 307.398 158.065 271.802 158.065 200.61 96.411 165.014 34.756 200.61"/><polygon class="eeae463b-ae8f-4e92-b1bf-a5316d81aac8" points="55.558 212.514 55.558 259.674 96.399 283.254 137.241 259.674 137.241 212.514 96.399 188.934 55.558 212.514"/></g><g id="85ea3b52-e903-4b3b-8e53-802e25f48707" data-name="blue"><polygon class="4bb4016c-79bb-41fd-bfc1-550597e1c608" points="166.691 200.61 166.691 271.802 228.346 307.398 290 271.802 290 200.61 228.346 165.014 166.691 200.61"/><polygon class="d2f5a0c9-319a-4ed4-9f64-570ff386f138" points="187.493 212.514 187.493 259.674 228.335 283.254 269.176 259.674 269.176 212.514 228.335 188.934 187.493 212.514"/></g><g id="f0aca31b-7062-4295-a81f-38ca8b12e36c" data-name="text"><path d="M374.98047,149.42969a64.73944,64.73944,0,0,1-13.292,1.09375c-33.32715,0-41.63379-22.32178-41.63379-32.38818,0-17.94531,14.75684-40.814,49.25684-47.70752l1.46582,9.19141c-22.38086,2.84473-40.85156,17.83545-40.85156,36.65576,0,13.34961,9.38184,25.93262,32.74023,25.93262a46.2464,46.2464,0,0,0,11.33691-1.53174Z"/><path d="M401.06934,120.32373c0,3.50146.293,27.02686.48926,28.44922h-9.1875c.293-2.18848.19531-31.73193.19531-33.70166v-7.5498c0-2.84521-.19531-22.103-.48828-23.854a143.79377,143.79377,0,0,1,19.35059.76611c11.72852,1.53174,18.56934,6.89355,18.56934,14.99072,0,7.65918-5.27734,14.22461-12.60742,19.03906,2.248,3.39209,17.9834,22.6499,20.52441,25.38574l-6.74414,6.67432c-.97754-1.313-21.11035-28.88672-23.749-32.82617,4.39844-2.5166,13.292-7.5498,13.292-16.85059,0-4.377-3.03027-9.95752-19.64453-10.06689Z"/><path d="M484.91895,149.75781c-2.93164,0-29.71094-.98486-31.46973-.98486.293-4.92383.293-24.83838.293-27.02686V109.38135c0-1.53174-.19531-23.96289-.293-25.71387,2.15039,0,25.3125-1.42236,29.71094-1.75049l.39063,7.87793c-3.81152,0-19.83984.438-21.30566.438v22.75928c1.66113,0,12.999-.4375,18.374-.98437l.293,7.9873c-2.93164,0-16.71191-.32812-18.667-.32812V141.77c2.15039,0,14.07324.21875,22.38086-.32812Z"/><path d="M494.78711,145.92822c4.69141-9.30078,30.10156-61.93213,32.05664-65.54346h.19531c7.52539,13.24023,28.63574,55.14844,34.40137,64.88672l-7.916,5.36182c-1.56348-3.50146-10.751-21.88428-11.62988-23.52588l-30.19922,1.31348c-1.17285,2.9541-8.01465,19.14844-9.38281,22.32178Zm44.07715-25.49512c-.97656-2.0791-11.23926-23.08789-12.11816-24.61963-1.27051,2.18848-10.94629,24.18164-11.72852,25.71387Z"/><path d="M581.27539,148.77295c.48926-2.40723.58691-29.54346.58691-44.31543v-13.021c-10.06641,0-22.67383.4375-23.94434.87549V83.44873c2.541.76611,23.55273,1.09424,24.53027,1.09424h7.81836c1.66211,0,21.0127-.32812,23.84766-1.09424V92.312c-.19629-.438-16.61523-.87549-23.749-.87549v14.44336c0,18.92969.87891,41.03271,1.07422,42.89307Z"/><path d="M658.6748,149.75781c-2.93164,0-29.71094-.98486-31.46973-.98486.293-4.92383.293-24.83838.293-27.02686V109.38135c0-1.53174-.19531-23.96289-.293-25.71387,2.15039,0,25.3125-1.42236,29.71094-1.75049l.39063,7.87793c-3.81152,0-19.83984.438-21.30566.438v22.75928c1.66113,0,12.999-.4375,18.374-.98437l.293,7.9873c-2.93164,0-16.71191-.32812-18.667-.32812V141.77c2.15039,0,14.07324.21875,22.38086-.32812Z"/><path d="M680.0752,107.84961c0-1.96973-.09766-21.55615-.48828-24.18213,5.082,0,14.1709-.10937,21.8916.54736,29.02734,2.5166,31.56836,17.94482,31.56836,24.40088,0,29.76221-30.19922,40.59473-53.55762,40.59473.39063-4.26709.58594-27.355.58594-29.87158Zm8.40527,33.26367c23.84668-1.75049,35.57422-16.74121,35.57422-30.30957,0-14.334-13.19336-20.24268-35.57422-19.80469Z"/><path d="M770.37109,145.92822c4.69141-9.30078,30.10156-61.93213,32.05664-65.54346h.19531c7.52539,13.24023,28.63574,55.14844,34.40137,64.88672l-7.916,5.36182c-1.56348-3.50146-10.751-21.88428-11.62988-23.52588L787.2793,128.4209c-1.17285,2.9541-8.01465,19.14844-9.38281,22.32178Zm44.07715-25.49512c-.97656-2.0791-11.23926-23.08789-12.11816-24.61963-1.27051,2.18848-10.94629,24.18164-11.72852,25.71387Z"/><path d="M856.85938,148.77295c.48926-2.40723.58691-29.54346.58691-44.31543v-13.021c-10.06641,0-22.67383.4375-23.94434.87549V83.44873c2.541.76611,23.55273,1.09424,24.53027,1.09424h7.81836c1.66211,0,21.0127-.32812,23.84766-1.09424V92.312c-.19629-.438-16.61523-.87549-23.749-.87549v14.44336c0,18.92969.87891,41.03271,1.07422,42.89307Z"/><path d="M941.87891,120.32373c0,3.50146.293,27.02686.48828,28.44922h-9.18652c.293-2.18848.19531-31.73193.19531-33.70166v-7.5498c0-2.84521-.19531-22.103-.48828-23.854a143.79377,143.79377,0,0,1,19.35059.76611c11.72852,1.53174,18.56934,6.89355,18.56934,14.99072,0,7.65918-5.27734,14.22461-12.60742,19.03906,2.248,3.39209,17.9834,22.6499,20.52441,25.38574l-6.74414,6.67432c-.97754-1.313-21.11035-28.88672-23.749-32.82617,4.39844-2.5166,13.292-7.5498,13.292-16.85059,0-4.377-3.03027-9.95752-19.64453-10.06689Z"/><path d="M986.14844,119.55762c0-20.68066,13.585-37.42188,35.08594-37.42188,17.20117,0,29.80859,11.708,29.80859,31.73193,0,14.55322-9.18652,36.437-34.793,36.437C996.80176,150.30469,986.14844,135.9707,986.14844,119.55762Zm55.80566-5.25244c0-16.63184-10.35937-24.94775-21.99023-24.94775-15.53906,0-24.82422,12.91162-24.82422,28.77783,0,13.89648,8.30762,24.94775,21.89258,24.94775C1030.42188,143.083,1041.9541,132.688,1041.9541,114.30518Z"/><path d="M1068.92383,149.75781c.19531-2.73535.48828-18.49219.48828-29.106v-9.84814c0-8.09668-.48828-25.93262-.48828-28.12109h9.38184c-.09766,1.53223-.48828,19.14893-.48828,27.24609v9.957c0,7.22168.293,28.01172.48828,29.87207Zm40.85254-.10937c-1.07519-1.313-27.46289-30.52832-31.27441-35.124,1.46582-1.53223,26.876-28.12109,28.92871-30.52832l5.17969,7.1123c-3.51855,3.06348-19.15527,17.83545-23.94434,22.75928,2.73633,3.61084,23.65137,24.83838,27.16895,28.33984Z"/><path d="M1144.66113,148.77295c.48926-2.40723.58691-29.54346.58691-44.31543v-13.021c-10.06641,0-22.67383.4375-23.94434.87549V83.44873c2.541.76611,23.55273,1.09424,24.53027,1.09424h7.81836c1.66211,0,21.01269-.32812,23.84766-1.09424V92.312c-.19629-.438-16.61523-.87549-23.749-.87549v14.44336c0,18.92969.87891,41.03271,1.07422,42.89307Z"/><path d="M1174.85644,145.92822c4.69141-9.30078,30.10156-61.93213,32.05664-65.54346h.19531c7.52539,13.24023,28.63574,55.14844,34.40137,64.88672l-7.916,5.36182c-1.56348-3.50146-10.751-21.88428-11.62988-23.52588l-30.19922,1.31348c-1.17285,2.9541-8.01465,19.14844-9.38281,22.32178Zm44.07715-25.49512c-.97656-2.0791-11.23926-23.08789-12.11816-24.61963-1.27051,2.18848-10.94629,24.18164-11.72852,25.71387Z"/><path d="M1266.03613,83.66748c-.3916,2.0791-.78223,20.35254-.78223,32.06055v25.71387c2.15039,0,12.70508,0,22.18555-.438v8.75391c-2.834,0-29.22266-.98486-31.46973-.98486.78125-4.92383.78125-24.83838.78125-27.02686V109.38135c0-1.53174-.19531-23.96289-.39062-25.71387Z"/><path d="M1336.98535,149.75781c-2.93164,0-29.71094-.98486-31.46973-.98486.293-4.92383.293-24.83838.293-27.02686V109.38135c0-1.53174-.19531-23.96289-.293-25.71387,2.15039,0,25.3125-1.42236,29.71094-1.75049l.39063,7.87793c-3.81152,0-19.83984.438-21.30566.438v22.75928c1.66113,0,12.999-.4375,18.374-.98437l.293,7.9873c-2.93164,0-16.71191-.32812-18.667-.32812V141.77c2.15039,0,14.07324.21875,22.38086-.32812Z"/><path d="M1355.35547,148.77295c.48828-7.00293,2.93164-59.19678,3.32324-68.82568h.48828c2.541,3.064,43.2959,49.02051,46.03223,51.9751,0-2.62646.19531-45.62891.293-48.69238l8.69824.4375c-.39062,5.58057-2.05274,43.65918-2.44336,67.0752h-.39062c-2.541-2.5166-45.34863-50.3335-46.61914-51.647.19629,1.751-.48828,47.27-.39062,50.334Z"/><path d="M1447.80469,148.77295c.48926-2.40723.58691-29.54346.58691-44.31543v-13.021c-10.06641,0-22.67383.4375-23.94434.87549V83.44873c2.541.76611,23.55273,1.09424,24.53027,1.09424h7.81836c1.66211,0,21.0127-.32812,23.84766-1.09424V92.312c-.19629-.438-16.61524-.87549-23.749-.87549v14.44336c0,18.92969.87891,41.03271,1.07422,42.89307Z"/><path d="M1491.38867,142.86426c8.99121-1.96973,20.42676-6.01807,20.42676-13.459,0-4.81445-3.03027-7.1123-9.48047-10.61377-7.623-4.15771-13.19434-8.09717-13.19434-14.88086,0-10.395,13.585-19.47705,26.19238-21.99365l1.85742,7.65918c-5.7666.98486-19.05762,4.70508-19.05762,12.80225,0,5.03369,6.35254,7.55029,10.16406,9.95752,6.74316,4.15771,12.60742,7.1123,12.60742,14.88135,0,9.62891-9.87109,19.36719-27.26758,23.30615Z"/><path d="M1536.7334,136.62744h10.94629v12.14551H1536.7334Z"/><path d="M1610.71387,149.53906a67.17637,67.17637,0,0,1-11.14062.76563c-30.29785,0-37.72559-18.60156-37.72559-27.57373,0-15.75684,13.292-34.68652,43.68652-40.70459l1.36816,8.31592c-19.35059,2.626-35.96484,14.6626-35.96484,30.85645,0,10.94238,8.30664,21.228,29.51465,21.228a40.63218,40.63218,0,0,0,9.38281-1.09424Z"/><path d="M1618.333,119.55762c0-20.68066,13.585-37.42188,35.08594-37.42188,17.20117,0,29.80859,11.708,29.80859,31.73193,0,14.55322-9.18652,36.437-34.793,36.437C1628.98633,150.30469,1618.333,135.9707,1618.333,119.55762Zm55.80566-5.25244c0-16.63184-10.35937-24.94775-21.99023-24.94775-15.53906,0-24.82422,12.91162-24.82422,28.77783,0,13.89648,8.30762,24.94775,21.89258,24.94775C1662.60645,143.083,1674.13867,132.688,1674.13867,114.30518Z"/><path d="M1689.86816,148.33545c1.4668-3.93945,19.54688-63.90186,20.03516-66.19971h.3916c2.63867,5.90869,18.667,39.8291,21.30566,45.19092,2.834-5.25244,21.11035-40.48584,22.67383-43.33057h.293c2.63867,7.5498,17.98242,53.94434,21.59863,63.792l-8.11133,3.39209c-2.05273-7.00293-14.1709-46.06592-15.34375-49.67725-2.835,5.14307-18.27637,34.57715-22.08789,41.36133h-.19531c-4.98437-10.395-15.34375-32.16992-19.25391-40.59521-1.56348,5.79932-12.41211,45.30029-13.291,48.91113Z"/><path d="M324.74512,227.44678c0-3.28271-.19531-22.75977-.48828-25.05762,14.1709,0,21.59863.10986,30.19922,1.31348,20.32813,2.84473,23.06543,11.92676,23.06543,18.0542,0,4.04883-1.95508,10.83252-12.31445,16.19434v.65625c6.74316,1.42285,15.34375,6.45605,15.34375,16.96045,0,12.36475-14.75781,25.167-47.00977,25.167h-9.28418c.48828-6.01855.48828-39.06348.48828-41.14258Zm20.3291,7.87842c4.20215,0,11.04395-4.377,11.04395-12.36475,0-7.22168-7.03711-8.53467-11.04395-8.20654Zm0,31.95068c5.375,0,13.48633-4.81445,13.48633-11.05127,0-7.11279-6.74316-10.61426-13.48633-10.28564Z"/><path d="M417.97656,236.96631c0,14.88135.58594,21.22754,4.00684,25.38574a8.39,8.39,0,0,0,6.8418,3.06348,8.17657,8.17657,0,0,0,7.23145-4.04834c2.44336-3.82959,2.542-7.33105,2.542-28.44922V229.4165c0-6.45605-.3916-12.91162-.48926-16.30371h21.501c0,2.07861.09766,9.08154.09766,16.41309v4.37646c0,17.83594-1.07422,28.66846-7.7207,37.20312-5.375,6.89355-14.46387,10.50439-24.335,10.50439-7.23242,0-18.56934-1.20361-25.21484-11.708-4.30078-6.78418-5.96191-13.67725-5.96191-36.21826v-5.0332c0-4.26758.09766-12.03613.09766-14.11523h21.8916c-.293,2.40723-.48828,7.65918-.48828,16.19434Z"/><path d="M500.84766,251.957c0,9.30078.293,25.93262.39063,28.12109H479.542c.09766-4.04834.19531-25.82324.19531-28.23047V241.78076c0-1.64111-.19531-25.49512-.19531-27.793h21.69629c-.09766,1.751-.39062,16.7417-.39062,27.90234Z"/><path d="M545.60547,213.98779c-.09766,2.18848-.48926,21.3374-.48926,33.04541v16.30371c2.15039,0,12.60742,0,19.74219-.438l.09766,18.16406c-2.63867,0-33.52246-.98486-41.14551-.98486.19531-4.92383.19531-24.83838.19531-27.02686V240.68652c0-1.53174-.19531-24.83838-.293-26.69873Z"/><path d="M580.88184,239.15479c0-1.96973-.09766-22.54053-.39062-25.167,16.71191,0,26.09473.32861,34.30371,1.53223,23.3584,3.28271,27.56055,16.19434,27.56055,23.74414,0,30.2002-32.83789,42.127-61.96191,41.25146.293-4.26709.48828-27.355.48828-29.87158Zm20.71973,24.07275c8.01367-1.20361,18.667-7.65967,18.667-20.68066,0-11.48926-9.38281-13.24023-18.667-13.24023Z"/><path d="M658.08594,263.11768h16.22363v16.96045H658.08594Z"/><path d="M769.69141,281.17236c-3.51855,0-38.7998-1.09424-43.88184-1.09424.293-5.79932.293-29.21533.293-31.73193v-14.6626c0-1.75049-.19531-28.12109-.293-31.29443,5.47363,0,38.31152-1.42236,41.92773-1.75049l.39063,18.0542c-3.61621,0-18.96.54736-20.71973.54736v14.22461c1.95508,0,13.19434-.54687,17.49414-.98486l.29395,17.50732c-2.63867,0-15.6377-.4375-17.78809-.4375v13.021c2.541,0,17.29883.21875,21.89258-.21875Z"/><path d="M790.40625,239.15479c0-1.96973-.09766-22.54053-.39062-25.167,16.71191,0,26.09473.32861,34.30371,1.53223,23.3584,3.28271,27.56055,16.19434,27.56055,23.74414,0,30.2002-32.83789,42.127-61.96191,41.25146.293-4.26709.48828-27.355.48828-29.87158ZM811.126,263.22754c8.01367-1.20361,18.667-7.65967,18.667-20.68066,0-11.48926-9.38281-13.24023-18.667-13.24023Z"/><path d="M890.18652,251.957c0,9.30078.293,25.93262.39063,28.12109H868.88086c.09766-4.04834.19531-25.82324.19531-28.23047V241.78076c0-1.64111-.19531-25.49512-.19531-27.793h21.69629c-.09766,1.751-.39062,16.7417-.39062,27.90234Z"/><path d="M922.72754,280.07813c.09766-2.40723.19531-15.647.19531-25.71387V230.83887c-3.61621,0-16.32129.4375-19.05762.54688V214.207c4.00684.4375,25.11719.76563,26.09473.76563h7.7207c1.66113,0,21.11035-.32812,25.41016-.76562v17.17871c-1.66113-.10937-18.08008-.54687-18.96-.54687v24.94775c0,9.62891.09766,22.43115.293,24.2915Z"/><path d="M969.44043,263.11768h16.22363v16.96045H969.44043Z"/><path d="M1033.35254,263.33691c9.48047.32813,19.83984-2.62646,19.83984-7.769,0-2.18848-1.66113-3.50146-9.57812-8.53467-6.15723-3.93945-13.291-9.41016-13.291-18.60156,0-12.25537,14.56152-25.38574,39.28809-27.793l2.63867,18.27344c-12.2168,0-18.373,2.07861-18.373,6.56494,0,2.626,3.127,4.26758,9.47949,7.769,5.17969,2.84473,13.585,7.769,13.585,17.6167,0,12.03613-11.23926,27.355-40.95019,31.18506Z"/><path d="M1094.43066,280.07813c.09766-4.04834.19629-25.82324.19629-28.23047V241.78076c0-1.64111-.19629-25.49512-.3916-27.793h21.99023c-.19531,1.751-.48926,19.6958-.48926,21.3374v3.28223l21.40332-1.75049v-3.50146c0-1.53174-.19531-17.28857-.39062-19.36768h21.89258c-.09766,2.29785-.3916,28.34033-.3916,30.52881v9.30078c0,1.20361.19629,24.50977.3916,26.26074H1136.749c.09766-3.17334.39063-18.27344.39063-20.02393v-6.45605l-21.40332,1.751v2.73535c0,4.26758.29395,19.80518.3916,21.99365Z"/><path d="M1172.51269,273.18457c2.63867-4.70508,26.48535-48.36377,35.47656-62.58887h1.85742c10.84863,16.85107,34.1084,56.1333,37.82226,61.49463l-17.98242,11.05176c-2.63867-4.48633-7.13477-12.91162-7.81934-14.00586l-26.09375,1.42236c-.48926.87549-3.71387,8.31592-5.66895,12.69287Zm43.39356-17.6167c-2.44336-5.36182-5.66894-11.48926-7.33008-15.31885-2.05273,4.48633-5.082,10.94189-7.33008,16.085Z"/><path d="M1282.26172,251.62891c0,3.50146.19531,27.02686.39063,28.44922h-21.0127c.3916-2.18848.29395-24.18213.29395-26.15137v-15.1001c0-2.84521-.19629-22.97852-.3916-24.83887,12.50977,0,24.92188-.10937,33.42481,1.09424,13.0957,1.86035,20.23047,7.44092,20.23047,15.97559,0,7.769-4.00684,13.67773-11.1416,18.60156,2.63867,3.17334,15.54,16.52246,17.88477,19.47705l-17.39551,14.11523-20.71973-33.70166c4.59375-2.5166,9.77344-7.1123,9.77344-14.00586,0-4.377-2.541-7.98779-11.33691-8.09717Z"/><path d="M1376.17578,281.063c-3.61621,0-35.67285-.98486-40.85254-.98486.19531-4.92383.19531-24.83838.19531-27.02686V240.68652c0-1.53174-.19531-23.96289-.19531-26.69873,5.57129,0,35.37891-1.313,39.09277-1.64111l.3916,15.97559c-3.32324,0-17.29883.54688-18.8623.54688v11.27051c1.75879,0,12.02051-.438,15.92969-.87549l.19629,15.5376c-2.3457,0-14.17187-.32812-16.126-.32812v10.06689c2.24707,0,15.73438.21875,19.9375-.21924Z"/><path d="M1393.86035,263.11768H1410.084v16.96045h-16.22363Z"/></g></g></svg>