<svg id="icon" xmlns="http://www.w3.org/2000/svg" xmlns:xlink="http://www.w3.org/1999/xlink" viewBox="0 0 512 512"><defs><style>.cls-1,.cls-3,.cls-5{stroke:#000;stroke-miterlimit:10;stroke-width:6px;}.cls-1{fill:url(#radial-gradient);}.cls-2{fill:url(#radial-gradient-2);}.cls-3{fill:url(#radial-gradient-3);}.cls-4{fill:url(#radial-gradient-4);}.cls-5{fill:url(#radial-gradient-5);}.cls-6{fill:url(#radial-gradient-6);}</style><radialGradient id="radial-gradient" cx="256.5" cy="143.99" r="130.19" gradientUnits="userSpaceOnUse"><stop offset="0" stop-color="#ffd6a9"/><stop offset="0.05" stop-color="#facb9f"/><stop offset="0.52" stop-color="#d0734f"/><stop offset="0.84" stop-color="#b53b1c"/><stop offset="1" stop-color="#ab2609"/></radialGradient><radialGradient id="radial-gradient-2" cx="256.48" cy="143.77" r="86.24" gradientUnits="userSpaceOnUse"><stop offset="0" stop-color="#fffef8"/><stop offset="0.2" stop-color="#fffbf2"/><stop offset="0.47" stop-color="#fff1df"/><stop offset="0.8" stop-color="#ffe2c2"/><stop offset="1" stop-color="#ffd6ab"/></radialGradient><radialGradient id="radial-gradient-3" cx="127.53" cy="368.22" r="130.19" gradientUnits="userSpaceOnUse"><stop offset="0" stop-color="#fcf9a2"/><stop offset="0.12" stop-color="#f8f299"/><stop offset="0.32" stop-color="#eddd82"/><stop offset="0.57" stop-color="#dcbc5b"/><stop offset="0.86" stop-color="#c48f26"/><stop offset="1" stop-color="#b77608"/></radialGradient><radialGradient id="radial-gradient-4" cx="127.51" cy="368" r="86.24" gradientUnits="userSpaceOnUse"><stop offset="0" stop-color="#fffffc"/><stop offset="0.16" stop-color="#fefdf5"/><stop offset="0.39" stop-color="#fbf9e1"/><stop offset="0.66" stop-color="#f5f1c1"/><stop offset="0.97" stop-color="#eee794"/><stop offset="1" stop-color="#ede68f"/></radialGradient><radialGradient id="radial-gradient-5" cx="385.47" cy="368.22" r="130.19" gradientUnits="userSpaceOnUse"><stop offset="0" stop-color="#9aedff"/><stop offset="0.13" stop-color="#94e8fc"/><stop offset="0.3" stop-color="#85daf4"/><stop offset="0.49" stop-color="#6bc2e6"/><stop offset="0.7" stop-color="#47a1d3"/><stop offset="0.91" stop-color="#1877ba"/><stop offset="1" stop-color="#0364af"/></radialGradient><radialGradient id="radial-gradient-6" cx="385.44" cy="368" r="86.24" gradientUnits="userSpaceOnUse"><stop offset="0" stop-color="#fcfeff"/><stop offset="0.17" stop-color="#f5fdff"/><stop offset="0.41" stop-color="#e1f9ff"/><stop offset="0.71" stop-color="#c1f4ff"/><stop offset="1" stop-color="#9aedff"/></radialGradient></defs><title>icon</title><g id="red"><polygon class="cls-1" points="135.97 74.4 135.97 213.58 256.5 283.17 377.03 213.58 377.03 74.4 256.5 4.81 135.97 74.4"/><polygon class="cls-2" points="176.63 97.67 176.63 189.87 256.48 235.97 336.32 189.87 336.32 97.67 256.48 51.58 176.63 97.67"/></g><g id="yellow"><polygon class="cls-3" points="7 298.63 7 437.81 127.53 507.4 248.07 437.81 248.07 298.63 127.53 229.04 7 298.63"/><polygon class="cls-4" points="47.67 321.9 47.67 414.1 127.51 460.2 207.36 414.1 207.36 321.9 127.51 275.8 47.67 321.9"/></g><g id="blue"><polygon class="cls-5" points="264.93 298.63 264.93 437.81 385.47 507.4 506 437.81 506 298.63 385.47 229.04 264.93 298.63"/><polygon class="cls-6" points="305.6 321.9 305.6 414.1 385.44 460.2 465.29 414.1 465.29 321.9 385.44 275.8 305.6 321.9"/></g></svg>