<svg id="logo" xmlns="http://www.w3.org/2000/svg" xmlns:xlink="http://www.w3.org/1999/xlink" viewBox="0 0 680 824"><defs><style>.cls-1{fill:#fff;}.cls-2,.cls-4,.cls-6{stroke:#000;stroke-miterlimit:10;stroke-width:6px;}.cls-2{fill:url(#radial-gradient);}.cls-3{fill:url(#radial-gradient-2);}.cls-4{fill:url(#radial-gradient-3);}.cls-5{fill:url(#radial-gradient-4);}.cls-6{fill:url(#radial-gradient-5);}.cls-7{fill:url(#radial-gradient-6);}.cls-8{font-size:110px;font-family:LetterGothicStd-Bold, Letter Gothic Std;font-weight:700;}.cls-9{letter-spacing:0.08em;}</style><radialGradient id="radial-gradient" cx="340.5" cy="178.99" r="130.19" gradientUnits="userSpaceOnUse"><stop offset="0" stop-color="#ffd6a9"/><stop offset="0.05" stop-color="#facb9f"/><stop offset="0.52" stop-color="#d0734f"/><stop offset="0.84" stop-color="#b53b1c"/><stop offset="1" stop-color="#ab2609"/></radialGradient><radialGradient id="radial-gradient-2" cx="340.48" cy="178.77" r="86.24" gradientUnits="userSpaceOnUse"><stop offset="0" stop-color="#fffef8"/><stop offset="0.2" stop-color="#fffbf2"/><stop offset="0.47" stop-color="#fff1df"/><stop offset="0.8" stop-color="#ffe2c2"/><stop offset="1" stop-color="#ffd6ab"/></radialGradient><radialGradient id="radial-gradient-3" cx="211.53" cy="403.22" r="130.19" gradientUnits="userSpaceOnUse"><stop offset="0" stop-color="#fcf9a2"/><stop offset="0.12" stop-color="#f8f299"/><stop offset="0.32" stop-color="#eddd82"/><stop offset="0.57" stop-color="#dcbc5b"/><stop offset="0.86" stop-color="#c48f26"/><stop offset="1" stop-color="#b77608"/></radialGradient><radialGradient id="radial-gradient-4" cx="211.51" cy="403" r="86.24" gradientUnits="userSpaceOnUse"><stop offset="0" stop-color="#fffffc"/><stop offset="0.16" stop-color="#fefdf5"/><stop offset="0.39" stop-color="#fbf9e1"/><stop offset="0.66" stop-color="#f5f1c1"/><stop offset="0.97" stop-color="#eee794"/><stop offset="1" stop-color="#ede68f"/></radialGradient><radialGradient id="radial-gradient-5" cx="469.47" cy="403.22" r="130.19" gradientUnits="userSpaceOnUse"><stop offset="0" stop-color="#9aedff"/><stop offset="0.13" stop-color="#94e8fc"/><stop offset="0.3" stop-color="#85daf4"/><stop offset="0.49" stop-color="#6bc2e6"/><stop offset="0.7" stop-color="#47a1d3"/><stop offset="0.91" stop-color="#1877ba"/><stop offset="1" stop-color="#0364af"/></radialGradient><radialGradient id="radial-gradient-6" cx="469.44" cy="403" r="86.24" gradientUnits="userSpaceOnUse"><stop offset="0" stop-color="#fcfeff"/><stop offset="0.17" stop-color="#f5fdff"/><stop offset="0.41" stop-color="#e1f9ff"/><stop offset="0.71" stop-color="#c1f4ff"/><stop offset="1" stop-color="#9aedff"/></radialGradient></defs><title>logo</title><g id="border"><rect class="cls-1" x="3" y="3" width="674" height="818" rx="57" ry="57"/><path d="M620,6a54.06,54.06,0,0,1,54,54V764a54.06,54.06,0,0,1-54,54H60A54.06,54.06,0,0,1,6,764V60A54.06,54.06,0,0,1,60,6H620m0-6H60A60.18,60.18,0,0,0,0,60V764a60.18,60.18,0,0,0,60,60H620a60.18,60.18,0,0,0,60-60V60A60.18,60.18,0,0,0,620,0Z"/></g><g id="red"><polygon class="cls-2" points="219.97 109.4 219.97 248.58 340.5 318.17 461.03 248.58 461.03 109.4 340.5 39.81 219.97 109.4"/><polygon class="cls-3" points="260.63 132.67 260.63 224.87 340.48 270.97 420.32 224.87 420.32 132.67 340.48 86.58 260.63 132.67"/></g><g id="yellow"><polygon class="cls-4" points="91 333.63 91 472.81 211.53 542.4 332.07 472.81 332.07 333.63 211.53 264.04 91 333.63"/><polygon class="cls-5" points="131.67 356.9 131.67 449.1 211.51 495.2 291.36 449.1 291.36 356.9 211.51 310.8 131.67 356.9"/></g><g id="blue"><polygon class="cls-6" points="348.93 333.63 348.93 472.81 469.47 542.4 590 472.81 590 333.63 469.47 264.04 348.93 333.63"/><polygon class="cls-7" points="389.6 356.9 389.6 449.1 469.44 495.2 549.29 449.1 549.29 356.9 469.44 310.8 389.6 356.9"/></g><text class="cls-8" transform="translate(224.66 665) scale(1.08 1)"><tspan class="cls-9">ROK</tspan><tspan x="-123.75" y="100">TALENTS</tspan></text></svg>