<svg id="74148f81-4d7d-4768-91f5-803dfa694a37" data-name="logo" xmlns="http://www.w3.org/2000/svg" xmlns:xlink="http://www.w3.org/1999/xlink" viewBox="0 0 680 824"><defs><style>.d7de9c6e-3644-4087-8b75-674d3799fc7d{fill:#fff;}.\31 e1bb9d5-46cc-4849-a49d-df0acad9410f,.\32 b9b5804-deca-4ef1-ae7f-e80ffa397fdc,.\32 eaadd54-9446-4f0c-bbd7-ccb7560fb80c{stroke:#000;stroke-miterlimit:10;stroke-width:6px;}.\31 e1bb9d5-46cc-4849-a49d-df0acad9410f{fill:url(#ccc2e6e5-4441-462c-9d79-d996911f5762);}.\33 7262cf6-7e1d-483d-a555-7e617743ee4b{fill:url(#5a0a7882-cac4-46d7-a18f-26397e3c2eda);}.\32 b9b5804-deca-4ef1-ae7f-e80ffa397fdc{fill:url(#762e6c59-08ea-4f4b-9962-06213c5c0f1f);}.\39 7734676-e532-4e51-a0a4-781100c9b4a8{fill:url(#c130a6d8-4a64-481f-871e-b7601ea91b04);}.\32 eaadd54-9446-4f0c-bbd7-ccb7560fb80c{fill:url(#96e284e9-e65f-4706-ae9a-b3b9a05e8cbc);}.\35 f1c8fa8-2643-4477-979c-c1f8c53ecaa3{fill:url(#d486c1b8-0b1d-4304-b23b-57fd655465cc);}</style><radialGradient id="ccc2e6e5-4441-462c-9d79-d996911f5762" cx="340.5" cy="178.99118" r="130.19138" gradientUnits="userSpaceOnUse"><stop offset="0" stop-color="#ffd6a9"/><stop offset="0.05493" stop-color="#facb9f"/><stop offset="0.51786" stop-color="#d0734f"/><stop offset="0.84326" stop-color="#b53b1c"/><stop offset="1" stop-color="#ab2609"/></radialGradient><radialGradient id="5a0a7882-cac4-46d7-a18f-26397e3c2eda" cx="340.47834" cy="178.77262" r="86.24298" gradientUnits="userSpaceOnUse"><stop offset="0" stop-color="#fffef8"/><stop offset="0.19766" stop-color="#fffbf2"/><stop offset="0.47405" stop-color="#fff1df"/><stop offset="0.79541" stop-color="#ffe2c2"/><stop offset="1" stop-color="#ffd6ab"/></radialGradient><radialGradient id="762e6c59-08ea-4f4b-9962-06213c5c0f1f" cx="211.5338" cy="403.21782" r="130.19138" gradientUnits="userSpaceOnUse"><stop offset="0" stop-color="#fcf9a2"/><stop offset="0.12269" stop-color="#f8f299"/><stop offset="0.32051" stop-color="#eddd82"/><stop offset="0.56875" stop-color="#dcbc5b"/><stop offset="0.85504" stop-color="#c48f26"/><stop offset="1" stop-color="#b77608"/></radialGradient><radialGradient id="c130a6d8-4a64-481f-871e-b7601ea91b04" cx="211.51214" cy="402.99926" r="86.24298" gradientUnits="userSpaceOnUse"><stop offset="0" stop-color="#fffffc"/><stop offset="0.15616" stop-color="#fefdf5"/><stop offset="0.38526" stop-color="#fbf9e1"/><stop offset="0.65927" stop-color="#f5f1c1"/><stop offset="0.96574" stop-color="#eee794"/><stop offset="1" stop-color="#ede68f"/></radialGradient><radialGradient id="96e284e9-e65f-4706-ae9a-b3b9a05e8cbc" cx="469.4662" cy="403.21782" r="130.19138" gradientUnits="userSpaceOnUse"><stop offset="0" stop-color="#9aedff"/><stop offset="0.13409" stop-color="#94e8fc"/><stop offset="0.30433" stop-color="#85daf4"/><stop offset="0.49415" stop-color="#6bc2e6"/><stop offset="0.69808" stop-color="#47a1d3"/><stop offset="0.91117" stop-color="#1877ba"/><stop offset="1" stop-color="#0364af"/></radialGradient><radialGradient id="d486c1b8-0b1d-4304-b23b-57fd655465cc" cx="469.44455" cy="402.99926" r="86.24298" gradientUnits="userSpaceOnUse"><stop offset="0" stop-color="#fcfeff"/><stop offset="0.16784" stop-color="#f5fdff"/><stop offset="0.41411" stop-color="#e1f9ff"/><stop offset="0.70713" stop-color="#c1f4ff"/><stop offset="1" stop-color="#9aedff"/></radialGradient></defs><title>logo</title><g id="8a193653-caf9-44eb-bc49-404b309a0519" data-name="border"><rect class="d7de9c6e-3644-4087-8b75-674d3799fc7d" x="3" y="3" width="674" height="818" rx="57" ry="57"/><path d="M620,6a54.06123,54.06123,0,0,1,54,54V764a54.06124,54.06124,0,0,1-54,54H60A54.06124,54.06124,0,0,1,6,764V60A54.06123,54.06123,0,0,1,60,6H620m0-6H60A60.17639,60.17639,0,0,0,0,60V764a60.17639,60.17639,0,0,0,60,60H620a60.17639,60.17639,0,0,0,60-60V60A60.17639,60.17639,0,0,0,620,0Z"/></g><g id="cd380fdc-80d7-42a5-b80a-5929fa870b8a" data-name="red"><polygon class="1e1bb9d5-46cc-4849-a49d-df0acad9410f" points="219.966 109.401 219.966 248.581 340.5 318.172 461.034 248.581 461.034 109.401 340.5 39.811 219.966 109.401"/><polygon class="37262cf6-7e1d-483d-a555-7e617743ee4b" points="260.633 132.674 260.633 224.871 340.478 270.97 420.324 224.871 420.324 132.674 340.478 86.575 260.633 132.674"/></g><g id="b17be82c-6754-4130-b128-bd6c2320bf0a" data-name="yellow"><polygon class="2b9b5804-deca-4ef1-ae7f-e80ffa397fdc" points="91 333.628 91 472.808 211.534 542.398 332.068 472.808 332.068 333.628 211.534 264.037 91 333.628"/><polygon class="97734676-e532-4e51-a0a4-781100c9b4a8" points="131.667 356.9 131.667 449.098 211.512 495.197 291.358 449.098 291.358 356.9 211.512 310.802 131.667 356.9"/></g><g id="1bb15507-6f7c-4e15-90dc-117a43d8200a" data-name="blue"><polygon class="2eaadd54-9446-4f0c-bbd7-ccb7560fb80c" points="348.932 333.628 348.932 472.808 469.466 542.398 590 472.808 590 333.628 469.466 264.037 348.932 333.628"/><polygon class="5f1c8fa8-2643-4477-979c-c1f8c53ecaa3" points="389.599 356.9 389.599 449.098 469.445 495.197 549.29 449.098 549.29 356.9 469.445 310.802 389.599 356.9"/></g><path d="M240.22363,585.7998h22.2168c21.38477,0,23.28516,17.82031,23.28516,22.43945,0,8.14063-3.32617,15.62012-15.207,21.89063L293.56738,665H282.75586l-20.791-33c-4.27734.10938-8.55371.10938-12.83105.21973V665h-8.91016Zm17.3457,39.37988c12.11816,0,19.24609-5.71973,19.24609-17.37988,0-10.56055-4.752-15.07031-18.88965-15.07031h-8.792v32.4502Z"/><path d="M340.498,584.25977c24.94922,0,26.25586,26.40039,26.25586,41.13965,0,10.56055.832,41.14063-26.25586,41.14063-26.375,0-26.25586-29.91992-26.25586-41.14062C314.24219,592.29,326.12207,584.25977,340.498,584.25977Zm17.3457,41.13965c0-7.25977,1.1875-34.21-17.3457-34.21-19.00879,0-17.3457,29.58984-17.3457,34.21,0,9.02051-.47559,34.21094,17.3457,34.21094C349.4082,659.61035,357.84375,654.11035,357.84375,625.39941Z"/><path d="M409.28906,620.66992c6.17773-.66016,20.791-14.41016,29.10742-35.86035l8.791,4.29-7.00977,10.88965c-11.28613,17.49023-17.10742,21.89063-22.57227,25.08008L454.55371,665H442.67285L410.002,627.71h-.71289V665h-8.91016V585.7998h8.91016Z"/><path d="M155.27344,692.72949H130.918V765h-8.91016V692.72949H98.12793V685.7998h57.14551Z"/><path d="M228.34082,765h-9.623l-7.60352-23.32031H185.0957L177.49219,765h-9.623l30.17676-85.80078Zm-41.10645-30.25h21.74121L198.0459,702.73926Z"/><path d="M260.89648,758.07031h37.06738V765H251.98633V685.7998h8.91016Z"/><path d="M365.80371,692.72949H330.28027v28.16016h25.54395v6.92969H330.28027v30.251h36.35449V765H321.37012V685.7998h44.43359Z"/><path d="M389.80371,685.7998h10.33691l26.01758,59.17969h.35645V685.7998h8.91016v79.96973h-8.43457l-28.03809-63.91016-.2373.2207V765h-8.91113Z"/><path d="M511.70117,692.72949H487.3457V765h-8.91016V692.72949H454.55566V685.7998h57.14551Z"/><path d="M573.00684,700.09961c-5.22754-4.29-11.168-8.91016-18.5332-8.91016-7.60352,0-13.78223,4.83984-13.78223,12.10059,0,4.17969.832,7.91992,12.35645,14.41016l6.77148,3.84961c15.68262,8.91016,19.959,13.08984,19.959,22.33008,0,14.19043-10.2168,22.66016-25.18652,22.66016-11.04883,0-19.24609-4.9502-25.89941-12.87012l6.89063-5.05957c4.1582,6.15918,10.81152,11,19.00879,11,8.91016,0,16.27637-6.16016,16.27637-14.63086,0-6.37988-.47559-8.58008-15.56348-16.93945l-7.72266-4.29c-8.43457-4.62012-15.80078-10.01074-15.80078-19.91016,0-12.43066,10.21777-19.58008,23.04883-19.58008,8.91016,0,17.10742,4.39941,23.52246,9.89941Z"/></svg>